<?xml version="1.0" encoding="UTF-8" standalone="no"?>
<!-- Created with Inkscape (http://www.inkscape.org/) -->
<svg
   xmlns:dc="http://purl.org/dc/elements/1.1/"
   xmlns:cc="http://creativecommons.org/ns#"
   xmlns:rdf="http://www.w3.org/1999/02/22-rdf-syntax-ns#"
   xmlns:svg="http://www.w3.org/2000/svg"
   xmlns="http://www.w3.org/2000/svg"
   xmlns:sodipodi="http://sodipodi.sourceforge.net/DTD/sodipodi-0.dtd"
   xmlns:inkscape="http://www.inkscape.org/namespaces/inkscape"
   width="64"
   height="64"
   id="svg2588"
   sodipodi:version="0.32"
   inkscape:version="0.46"
   version="1.0"
   sodipodi:docname="userlist-highcontrast.svg"
   inkscape:output_extension="org.inkscape.output.svg.inkscape">
  <defs
     id="defs2590">
    <inkscape:perspective
       sodipodi:type="inkscape:persp3d"
       inkscape:vp_x="0 : 526.18109 : 1"
       inkscape:vp_y="0 : 1000 : 0"
       inkscape:vp_z="744.09448 : 526.18109 : 1"
       inkscape:persp3d-origin="372.04724 : 350.78739 : 1"
       id="perspective2596" />
  </defs>
  <sodipodi:namedview
     id="base"
     pagecolor="#ffffff"
     bordercolor="#666666"
     borderopacity="1.0"
     inkscape:pageopacity="0.0"
     inkscape:pageshadow="2"
     inkscape:zoom="3.959798"
     inkscape:cx="63.781804"
     inkscape:cy="62.864886"
     inkscape:document-units="px"
     inkscape:current-layer="layer1"
     showgrid="false"
     inkscape:window-width="641"
     inkscape:window-height="695"
     inkscape:window-x="0"
     inkscape:window-y="25" />
  <metadata
     id="metadata2593">
    <rdf:RDF>
      <cc:Work
         rdf:about="">
        <dc:format>image/svg+xml</dc:format>
        <dc:type
           rdf:resource="http://purl.org/dc/dcmitype/StillImage" />
      </cc:Work>
    </rdf:RDF>
  </metadata>
  <g
     inkscape:label="Ebene 1"
     inkscape:groupmode="layer"
     id="layer1">
    <g
       id="g3300"
       transform="matrix(1.1963246,0,0,1.1963246,-69.908337,-31.222214)">
      <g
         style="fill:#ffffff;fill-opacity:1;stroke:#ffffff;stroke-width:12;stroke-miterlimit:4;stroke-dasharray:none;stroke-opacity:1"
         id="g3290"
         transform="translate(100.53773,-17.227692)">
        <path
           style="fill:#ffffff;fill-opacity:1;stroke:#ffffff;stroke-width:12;stroke-linecap:butt;stroke-linejoin:miter;stroke-miterlimit:4;stroke-dasharray:none;stroke-dashoffset:0;stroke-opacity:1"
           d="M 0.019815472,81.737602 C 0.019815472,88.59296 -6.8477509,90.228818 -15.309576,90.228818 C -23.771402,90.228818 -30.638968,88.59296 -30.638968,81.737602 C -30.638968,74.882246 -23.771402,65.390572 -15.309576,65.390572 C -6.8477509,65.390572 0.019815472,74.882246 0.019815472,81.737602 z"
           id="path3292"
           sodipodi:nodetypes="csssc" />
        <path
           style="fill:#ffffff;fill-opacity:1;stroke:#ffffff;stroke-width:12;stroke-linecap:butt;stroke-linejoin:miter;stroke-miterlimit:4;stroke-dasharray:none;stroke-dashoffset:0;stroke-opacity:1"
           d="M 0.645034,81.934659 C 0.645034,89.182335 -6.4950883,90.911814 -15.292737,90.911814 C -24.090387,90.911814 -31.230506,89.182335 -31.230506,81.934659 C -31.230506,74.686983 -24.090387,64.652116 -15.292737,64.652116 C -6.4950883,64.652116 0.645034,74.686983 0.645034,81.934659 z"
           id="path3294"
           sodipodi:nodetypes="csssc" />
        <path
           sodipodi:type="arc"
           style="fill:#ffffff;fill-opacity:1;stroke:#ffffff;stroke-width:11.5466423;stroke-linecap:butt;stroke-linejoin:miter;stroke-miterlimit:4;stroke-dasharray:none;stroke-dashoffset:0;stroke-opacity:1"
           id="path3296"
           sodipodi:cx="28.927095"
           sodipodi:cy="23.952044"
           sodipodi:rx="9.5138006"
           sodipodi:ry="9.8352127"
           d="M 38.440896,23.952044 A 9.5138006,9.8352127 0 1 1 19.413295,23.952044 A 9.5138006,9.8352127 0 1 1 38.440896,23.952044 z"
           transform="matrix(1.0495024,0,0,1.0291239,-46.144899,35.743513)" />
        <path
           sodipodi:type="arc"
           style="fill:#ffffff;fill-opacity:1;stroke:#ffffff;stroke-width:10.64695072;stroke-linecap:butt;stroke-linejoin:miter;stroke-miterlimit:4;stroke-dasharray:none;stroke-dashoffset:0;stroke-opacity:1"
           id="path3298"
           sodipodi:cx="28.927095"
           sodipodi:cy="23.952044"
           sodipodi:rx="9.5138006"
           sodipodi:ry="9.8352127"
           d="M 38.440896,23.952044 A 9.5138006,9.8352127 0 1 1 19.413295,23.952044 A 9.5138006,9.8352127 0 1 1 38.440896,23.952044 z"
           transform="matrix(1.1386515,0,0,1.1156325,-48.764457,33.724951)" />
      </g>
      <g
         transform="translate(100.53773,-17.227692)"
         id="g3272">
        <path
           sodipodi:nodetypes="csssc"
           id="path9660"
           d="M 0.019815472,81.737602 C 0.019815472,88.59296 -6.8477509,90.228818 -15.309576,90.228818 C -23.771402,90.228818 -30.638968,88.59296 -30.638968,81.737602 C -30.638968,74.882246 -23.771402,65.390572 -15.309576,65.390572 C -6.8477509,65.390572 0.019815472,74.882246 0.019815472,81.737602 z"
           style="fill:#ffffff;fill-opacity:1;stroke:#000000;stroke-width:2.00145364;stroke-linecap:butt;stroke-linejoin:miter;stroke-miterlimit:4;stroke-dasharray:none;stroke-dashoffset:0;stroke-opacity:1" />
        <path
           sodipodi:nodetypes="csssc"
           id="path9662"
           d="M 0.645034,81.934659 C 0.645034,89.182335 -6.4950883,90.911814 -15.292737,90.911814 C -24.090387,90.911814 -31.230506,89.182335 -31.230506,81.934659 C -31.230506,74.686983 -24.090387,64.652116 -15.292737,64.652116 C -6.4950883,64.652116 0.645034,74.686983 0.645034,81.934659 z"
           style="fill:#ffffff;fill-opacity:1;stroke:#000000;stroke-width:4.28800011;stroke-linecap:butt;stroke-linejoin:miter;stroke-miterlimit:4;stroke-dasharray:none;stroke-dashoffset:0;stroke-opacity:1" />
        <path
           transform="matrix(1.0495024,0,0,1.0291239,-46.144899,35.743513)"
           d="M 38.440896,23.952044 A 9.5138006,9.8352127 0 1 1 19.413295,23.952044 A 9.5138006,9.8352127 0 1 1 38.440896,23.952044 z"
           sodipodi:ry="9.8352127"
           sodipodi:rx="9.5138006"
           sodipodi:cy="23.952044"
           sodipodi:cx="28.927095"
           id="path9668"
           style="fill:#ffffff;fill-opacity:1;stroke:#000000;stroke-width:3.58148241;stroke-linecap:butt;stroke-linejoin:miter;stroke-miterlimit:4;stroke-dasharray:none;stroke-dashoffset:0;stroke-opacity:1"
           sodipodi:type="arc" />
        <path
           transform="matrix(1.1386515,0,0,1.1156325,-48.764457,33.724951)"
           d="M 38.440896,23.952044 A 9.5138006,9.8352127 0 1 1 19.413295,23.952044 A 9.5138006,9.8352127 0 1 1 38.440896,23.952044 z"
           sodipodi:ry="9.8352127"
           sodipodi:rx="9.5138006"
           sodipodi:cy="23.952044"
           sodipodi:cx="28.927095"
           id="path9670"
           style="fill:#ffffff;fill-opacity:1;stroke:#000000;stroke-width:3.54898357;stroke-linecap:butt;stroke-linejoin:miter;stroke-miterlimit:4;stroke-dasharray:none;stroke-dashoffset:0;stroke-opacity:1"
           sodipodi:type="arc" />
      </g>
    </g>
  </g>
</svg>
