<?xml version="1.0" encoding="UTF-8" standalone="no"?>
<!-- Created with Inkscape (http://www.inkscape.org/) -->
<svg
   xmlns:dc="http://purl.org/dc/elements/1.1/"
   xmlns:cc="http://creativecommons.org/ns#"
   xmlns:rdf="http://www.w3.org/1999/02/22-rdf-syntax-ns#"
   xmlns:svg="http://www.w3.org/2000/svg"
   xmlns="http://www.w3.org/2000/svg"
   xmlns:xlink="http://www.w3.org/1999/xlink"
   xmlns:sodipodi="http://sodipodi.sourceforge.net/DTD/sodipodi-0.dtd"
   xmlns:inkscape="http://www.inkscape.org/namespaces/inkscape"
   width="48"
   height="48"
   id="svg2"
   sodipodi:version="0.32"
   inkscape:version="0.46"
   version="1.0"
   sodipodi:docbase="/home/ben/media/pictures/vector"
   sodipodi:docname="document-list.svg"
   inkscape:export-filename="/home/ben/www/docs16.png"
   inkscape:export-xdpi="30"
   inkscape:export-ydpi="30"
   inkscape:output_extension="org.inkscape.output.svg.inkscape">
  <defs
     id="defs4">
    <inkscape:perspective
       sodipodi:type="inkscape:persp3d"
       inkscape:vp_x="0 : 24 : 1"
       inkscape:vp_y="0 : 1000 : 0"
       inkscape:vp_z="48 : 24 : 1"
       inkscape:persp3d-origin="24 : 16 : 1"
       id="perspective134" />
    <linearGradient
       id="linearGradient4140">
      <stop
         style="stop-color:#000000;stop-opacity:1;"
         offset="0"
         id="stop4142" />
      <stop
         id="stop4148"
         offset="0.76923078"
         style="stop-color:#000000;stop-opacity:1;" />
      <stop
         style="stop-color:#000000;stop-opacity:0;"
         offset="1"
         id="stop4144" />
    </linearGradient>
    <linearGradient
       id="linearGradient3322">
      <stop
         style="stop-color:#a6a6a6;stop-opacity:1;"
         offset="0"
         id="stop3324" />
      <stop
         style="stop-color:#ffffff;stop-opacity:1;"
         offset="1"
         id="stop3326" />
    </linearGradient>
    <linearGradient
       id="linearGradient3312">
      <stop
         style="stop-color:#ffffff;stop-opacity:1;"
         offset="0"
         id="stop3314" />
      <stop
         style="stop-color:#000000;stop-opacity:1;"
         offset="1"
         id="stop3316" />
    </linearGradient>
    <linearGradient
       inkscape:collect="always"
       id="linearGradient3296">
      <stop
         style="stop-color:#000000;stop-opacity:1;"
         offset="0"
         id="stop3298" />
      <stop
         style="stop-color:#000000;stop-opacity:0;"
         offset="1"
         id="stop3300" />
    </linearGradient>
    <linearGradient
       id="linearGradient2241">
      <stop
         id="stop2243"
         offset="0"
         style="stop-color:#696969;stop-opacity:1;" />
      <stop
         id="stop2245"
         offset="1"
         style="stop-color:#262626;stop-opacity:1;" />
    </linearGradient>
    <linearGradient
       id="linearGradient2186">
      <stop
         style="stop-color:#ffffff;stop-opacity:1;"
         offset="0"
         id="stop2188" />
      <stop
         style="stop-color:#c8c8c8;stop-opacity:1;"
         offset="1"
         id="stop2190" />
    </linearGradient>
    <radialGradient
       inkscape:collect="always"
       xlink:href="#linearGradient4140"
       id="radialGradient4146"
       cx="24"
       cy="27"
       fx="24"
       fy="27"
       r="24"
       gradientTransform="matrix(1,0,0,0.9375,0,0.1875)"
       gradientUnits="userSpaceOnUse" />
    <linearGradient
       inkscape:collect="always"
       xlink:href="#linearGradient3296"
       id="linearGradient2585"
       gradientUnits="userSpaceOnUse"
       gradientTransform="matrix(0.2210827,0,0,1.9794149,-49.619736,-112.07364)"
       x1="25.301489"
       y1="46.999985"
       x2="25.475771"
       y2="44.992081" />
    <linearGradient
       inkscape:collect="always"
       xlink:href="#linearGradient3296"
       id="linearGradient2588"
       gradientUnits="userSpaceOnUse"
       gradientTransform="matrix(0.9948736,0,0,1.9884998,-65.800207,-48.482461)"
       x1="43.025536"
       y1="47.064953"
       x2="43.025536"
       y2="44.992702" />
    <linearGradient
       inkscape:collect="always"
       xlink:href="#linearGradient3296"
       id="linearGradient2591"
       gradientUnits="userSpaceOnUse"
       gradientTransform="matrix(0.958026,0,0,1.9539362,-5.022322e-2,-46.927139)"
       x1="43.025536"
       y1="47.064953"
       x2="43.025536"
       y2="44.992702" />
    <radialGradient
       inkscape:collect="always"
       xlink:href="#linearGradient3312"
       id="radialGradient2594"
       gradientUnits="userSpaceOnUse"
       gradientTransform="matrix(-2.7256635,1.795449,-2.0566078,-3.1221272,187.24913,-10.883279)"
       cx="42"
       cy="15.84375"
       fx="42"
       fy="15.84375"
       r="3.0625" />
    <linearGradient
       inkscape:collect="always"
       xlink:href="#linearGradient3296"
       id="linearGradient2621"
       gradientUnits="userSpaceOnUse"
       gradientTransform="matrix(0.2210827,0,0,1.9794149,-32.378927,-101.59154)"
       x1="25.301489"
       y1="46.999985"
       x2="25.475771"
       y2="44.992081" />
    <linearGradient
       inkscape:collect="always"
       xlink:href="#linearGradient3296"
       id="linearGradient2624"
       gradientUnits="userSpaceOnUse"
       gradientTransform="matrix(0.9948736,0,0,1.9884998,-55.318107,-65.723271)"
       x1="43.025536"
       y1="47.064953"
       x2="43.025536"
       y2="44.992702" />
    <linearGradient
       inkscape:collect="always"
       xlink:href="#linearGradient3296"
       id="linearGradient2627"
       gradientUnits="userSpaceOnUse"
       gradientTransform="matrix(0.958026,0,0,1.9539362,-17.291033,-57.409239)"
       x1="43.025536"
       y1="47.064953"
       x2="43.025536"
       y2="44.992702" />
    <radialGradient
       inkscape:collect="always"
       xlink:href="#linearGradient3312"
       id="radialGradient2630"
       gradientUnits="userSpaceOnUse"
       gradientTransform="matrix(-2.7256635,1.795449,-2.0566078,-3.1221272,170.00832,-21.365379)"
       cx="42"
       cy="15.84375"
       fx="42"
       fy="15.84375"
       r="3.0625" />
    <linearGradient
       inkscape:collect="always"
       xlink:href="#linearGradient3296"
       id="linearGradient2657"
       gradientUnits="userSpaceOnUse"
       gradientTransform="matrix(0.2210827,0,0,1.9794149,-40.673385,-106.54399)"
       x1="25.301489"
       y1="46.999985"
       x2="25.475771"
       y2="44.992081" />
    <linearGradient
       inkscape:collect="always"
       xlink:href="#linearGradient3296"
       id="linearGradient2660"
       gradientUnits="userSpaceOnUse"
       gradientTransform="matrix(0.9948736,0,0,1.9884998,-60.270563,-57.428812)"
       x1="43.025536"
       y1="47.064953"
       x2="43.025536"
       y2="44.992702" />
    <linearGradient
       inkscape:collect="always"
       xlink:href="#linearGradient3296"
       id="linearGradient2663"
       gradientUnits="userSpaceOnUse"
       gradientTransform="matrix(0.958026,0,0,1.9539362,-8.9965742,-52.456783)"
       x1="43.025536"
       y1="47.064953"
       x2="43.025536"
       y2="44.992702" />
    <radialGradient
       inkscape:collect="always"
       xlink:href="#linearGradient3312"
       id="radialGradient2666"
       gradientUnits="userSpaceOnUse"
       gradientTransform="matrix(-2.7256635,1.795449,-2.0566078,-3.1221272,178.30278,-16.412923)"
       cx="42"
       cy="15.84375"
       fx="42"
       fy="15.84375"
       r="3.0625" />
    <radialGradient
       inkscape:collect="always"
       xlink:href="#linearGradient3322"
       id="radialGradient2440"
       gradientUnits="userSpaceOnUse"
       gradientTransform="matrix(-2.6931644e-7,-2.4309,1.916052,-2.1227701e-7,-38.467181,159.68542)"
       cx="47.154999"
       cy="43.627567"
       fx="47.154999"
       fy="43.627567"
       r="13.127585" />
    <radialGradient
       inkscape:collect="always"
       xlink:href="#linearGradient3322"
       id="radialGradient2444"
       gradientUnits="userSpaceOnUse"
       gradientTransform="matrix(-2.6931644e-7,-2.4309,1.916052,-2.1227701e-7,-47.413532,154.15578)"
       cx="47.154999"
       cy="43.627567"
       fx="47.154999"
       fy="43.627567"
       r="13.127585" />
    <radialGradient
       inkscape:collect="always"
       xlink:href="#linearGradient3322"
       id="radialGradient2448"
       gradientUnits="userSpaceOnUse"
       gradientTransform="matrix(-2.6931644e-7,-2.4309,1.916052,-2.1227701e-7,-55.707991,149.20332)"
       cx="47.154999"
       cy="43.627567"
       fx="47.154999"
       fy="43.627567"
       r="13.127585" />
  </defs>
  <sodipodi:namedview
     id="base"
     pagecolor="#ffffff"
     bordercolor="#666666"
     borderopacity="1.0"
     inkscape:pageopacity="0.0"
     inkscape:pageshadow="2"
     inkscape:zoom="5.656854"
     inkscape:cx="-22.717909"
     inkscape:cy="24.530929"
     inkscape:document-units="px"
     inkscape:current-layer="layer1"
     gridtolerance="0.4px"
     showgrid="true"
     inkscape:grid-bbox="true"
     inkscape:grid-points="false"
     inkscape:window-width="1280"
     inkscape:window-height="725"
     inkscape:window-x="0"
     inkscape:window-y="25">
    <inkscape:grid
       id="GridFromPre046Settings"
       type="xygrid"
       originx="0px"
       originy="0px"
       spacingx="1px"
       spacingy="1px"
       color="#3f3fff"
       empcolor="#0000ff"
       opacity="0.19607843"
       empopacity="0.4"
       empspacing="8" />
  </sodipodi:namedview>
  <metadata
     id="metadata7">
    <rdf:RDF>
      <cc:Work
         rdf:about="">
        <dc:format>image/svg+xml</dc:format>
        <dc:type
           rdf:resource="http://purl.org/dc/dcmitype/StillImage" />
      </cc:Work>
    </rdf:RDF>
  </metadata>
  <g
     inkscape:label="Layer 1"
     inkscape:groupmode="layer"
     id="layer1">
    <rect
       style="opacity:0.5;fill:url(#radialGradient4146);fill-opacity:1;fill-rule:evenodd;stroke:none;stroke-width:0.48875001;stroke-linecap:round;stroke-linejoin:round;stroke-miterlimit:4;stroke-dasharray:none;stroke-dashoffset:0;stroke-opacity:1"
       id="rect4138"
       width="48"
       height="45"
       x="0"
       y="3" />
    <path
       style="fill:none;fill-opacity:1;fill-rule:evenodd;stroke:#000000;stroke-width:1.61281967;stroke-linecap:butt;stroke-linejoin:miter;stroke-miterlimit:4;stroke-dasharray:none;stroke-opacity:1"
       d="M 2.8755359,2.8064098 L 2.8755359,34.42906 L 11.170002,34.42906 L 11.170002,39.382699 L 20.126873,39.382699 L 20.126873,44.912343 L 44.981469,44.912343 L 44.981469,19.049738 L 39.221423,13.289693 L 35.794196,13.289693 L 30.293353,7.760049 L 26.923726,7.760049 L 21.998887,2.8064098 L 2.8755359,2.8064098 z "
       id="path4121" />
    <g
       id="g2461">
      <path
         style="fill:url(#radialGradient2448);fill-opacity:1;fill-rule:evenodd;stroke:#000000;stroke-width:0.52762246;stroke-linecap:butt;stroke-linejoin:miter;stroke-miterlimit:4;stroke-dasharray:none;stroke-opacity:1"
         d="M 2.8800416,2.810915 L 21.988033,2.810915 L 27.736189,8.559071 L 27.736189,34.425773 L 2.8800416,34.425773 L 2.8800416,2.810915 z"
         id="path2458"
         sodipodi:nodetypes="cccccc" />
      <use
         height="48"
         width="48"
         transform="translate(-8.324074,-4.9256582)"
         id="use2453"
         xlink:href="#text2524"
         y="0"
         x="0" />
    </g>
    <path
       style="fill:url(#radialGradient2630);fill-opacity:1;fill-rule:evenodd;stroke:#000000;stroke-width:0.45043755;stroke-linecap:butt;stroke-linejoin:round;stroke-miterlimit:4;stroke-dasharray:none;stroke-opacity:1"
       d="M 21.988033,2.810915 L 27.736189,8.559071 L 21.988033,8.559071 L 21.988033,2.810915 z"
       id="path2502"
       sodipodi:nodetypes="cccc" />
    <rect
       y="30.517899"
       x="2.827513"
       height="3.9078729"
       width="24.908676"
       id="rect2504"
       style="opacity:0.5;fill:url(#linearGradient2627);fill-opacity:1;fill-rule:evenodd;stroke:none;stroke-width:0.11;stroke-linecap:round;stroke-linejoin:round;stroke-miterlimit:4;stroke-dasharray:none;stroke-dashoffset:0;stroke-opacity:1" />
    <rect
       transform="matrix(0,-1,1,0,0,0)"
       style="opacity:0.5;fill:url(#linearGradient2624);fill-opacity:1;fill-rule:evenodd;stroke:none;stroke-width:0.11;stroke-linecap:round;stroke-linejoin:round;stroke-miterlimit:4;stroke-dasharray:none;stroke-dashoffset:0;stroke-opacity:1"
       id="rect2506"
       width="25.866701"
       height="3.976999"
       x="-34.425774"
       y="23.759192" />
    <rect
       transform="scale(-1,-1)"
       y="-15.314775"
       x="-27.736189"
       height="6.7557034"
       width="5.7481561"
       id="rect2508"
       style="opacity:0.5;fill:url(#linearGradient2621);fill-opacity:1;fill-rule:evenodd;stroke:none;stroke-width:0.11;stroke-linecap:round;stroke-linejoin:round;stroke-miterlimit:4;stroke-dasharray:none;stroke-dashoffset:0;stroke-opacity:1" />
    <g
       id="g2465">
      <path
         style="fill:url(#radialGradient2444);fill-opacity:1;fill-rule:evenodd;stroke:#000000;stroke-width:0.52762246;stroke-linecap:butt;stroke-linejoin:miter;stroke-miterlimit:4;stroke-dasharray:none;stroke-opacity:1"
         d="M 11.1745,7.763371 L 30.282492,7.763371 L 36.030648,13.511527 L 36.030648,39.378229 L 11.1745,39.378229 L 11.1745,7.763371 z"
         id="path2522"
         sodipodi:nodetypes="cccccc" />
      <path
         id="text2524"
         d="M 14.883239,10.828646 C 14.829992,11.200262 15.145624,10.594712 15.138122,11.116243 C 15.019892,11.10527 14.905338,11.802899 14.848083,11.36429 C 14.598849,11.688074 14.463925,11.337142 14.69691,11.136741 C 14.415582,11.130889 14.819817,10.874062 14.883239,10.828646 z M 14.910094,11.116243 C 14.627133,11.087199 14.866855,11.485217 14.910094,11.116243 z M 15.247497,10.999544 C 15.601791,10.878232 15.688532,11.624165 15.582016,11.546419 C 14.836791,11.674457 15.692786,11.265373 15.261215,11.109407 C 15.208102,11.121327 15.269706,11.018529 15.247497,10.999544 z M 15.387633,10.733431 C 15.790429,10.669408 15.316138,11.182705 15.387633,10.733431 z M 16.264097,11.191439 C 16.234353,12.062515 16.13041,10.926024 15.967223,11.233431 C 16.013175,12.005433 15.580859,11.045349 15.951551,10.999544 C 15.924399,11.193273 16.271332,10.752472 16.264098,11.191439 L 16.264097,11.191439 z M 16.860779,11.518587 C 16.108868,11.836434 16.593607,10.507671 16.860779,11.158236 C 16.256045,10.962958 16.767193,11.59527 16.860779,11.518587 z M 17.13324,11.318392 C 17.123076,10.952522 16.918304,10.58165 17.276304,10.913072 C 17.240792,11.361277 17.642939,11.845133 17.133239,11.318392 L 17.13324,11.318392 z M 17.62396,11.355501 C 17.653303,10.484644 17.758975,11.61632 17.920836,11.313509 C 17.874257,10.540532 18.30902,11.498995 17.937486,11.546419 C 17.970379,11.356731 17.60981,11.789911 17.623961,11.355501 L 17.62396,11.355501 z M 18.533628,11.077181 C 18.576278,10.391723 18.760784,11.178859 18.676208,11.481953 C 18.413467,11.846564 17.758813,10.894563 18.533629,11.077181 L 18.533628,11.077181 z M 18.334412,11.274446 C 18.586684,11.863925 18.534768,10.705839 18.334411,11.274446 L 18.334412,11.274446 z M 19.287046,11.519564 C 18.139509,11.641466 19.508691,10.528296 19.18358,11.319368 C 18.534892,11.395539 19.363601,11.357007 19.287046,11.519564 z M 19.165955,11.211946 C 19.077545,10.909262 18.72326,11.309084 19.165955,11.211946 z M 20.511168,11.094271 C 19.662763,11.149793 20.868123,11.477668 20.334658,11.423894 C 19.488791,11.309784 20.478796,10.851973 20.511168,11.094271 z M 20.661558,10.999544 C 21.015852,10.878233 21.102594,11.624166 20.99608,11.546419 C 20.250851,11.674456 21.106849,11.265375 20.675279,11.109407 C 20.622163,11.121328 20.683767,11.01853 20.661558,10.999544 z M 20.801697,10.733431 C 21.204488,10.669407 20.7302,11.182705 20.801697,10.733431 z M 21.455994,11.102571 C 21.001758,11.522184 21.897117,11.548673 21.455993,11.102571 L 21.455994,11.102571 z M 21.203062,11.27347 C 21.837056,10.146923 21.829338,12.374121 21.203063,11.27347 L 21.203062,11.27347 z M 22.240662,11.016634 C 21.936779,11.198135 22.069923,11.084107 22.263854,11.465609 C 21.774969,11.643317 21.829541,11.436161 22.12445,11.357454 C 21.664536,11.307454 21.831463,10.843193 22.240661,11.016634 L 22.240662,11.016634 z M 22.695251,10.844271 C 23.074701,11.074423 22.455738,11.181202 22.835608,11.436556 C 22.908014,11.841056 22.18188,10.935514 22.552183,10.999544 C 22.544791,10.843539 22.523154,10.827285 22.695251,10.844271 z M 23.521912,11.150423 C 23.149788,11.029757 23.144141,12.011239 23.10199,11.167166 C 22.953461,10.988641 23.631258,10.898539 23.521912,11.150423 z M 24.099546,11.519564 C 22.952009,11.641466 24.321191,10.528296 23.99608,11.319368 C 23.347392,11.395539 24.176101,11.357007 24.099546,11.519564 z M 23.978455,11.211946 C 23.890045,10.909262 23.53576,11.309084 23.978455,11.211946 z M 24.504822,11.289583 C 24.048016,11.467244 24.747386,11.48173 24.504822,11.289583 z M 24.704041,11.234407 C 24.884101,11.949576 23.69319,11.241818 24.561951,11.16263 C 23.783794,11.127994 24.673523,10.717949 24.70404,11.234407 L 24.704041,11.234407 z M 25.101501,11.054232 C 25.602574,10.965731 25.132774,12.044404 25.202086,11.113802 C 25.088345,11.499677 25.039638,11.685523 24.964782,11.093294 C 24.941743,11.691923 24.742047,11.544517 24.804626,10.999544 C 24.943294,11.094654 24.946766,10.89196 25.101501,11.054232 z M 25.409119,11.094271 C 25.518503,10.812802 26.320254,11.392031 25.572212,11.429162 C 25.057899,11.476323 26.250473,11.154837 25.440294,11.105447 L 25.409119,11.094271 z M 14.883239,12.128646 C 14.829992,12.500262 15.145623,11.894712 15.138122,12.416243 C 15.019893,12.40527 14.905338,13.102899 14.848083,12.66429 C 14.598849,12.988074 14.463925,12.637143 14.696909,12.436741 C 14.415582,12.430887 14.819816,12.174064 14.883239,12.128646 z M 14.910094,12.416243 C 14.627132,12.387199 14.866856,12.785218 14.910094,12.416243 z M 15.247497,12.299544 C 15.601791,12.178233 15.688532,12.924165 15.582016,12.846419 C 14.836791,12.974458 15.692786,12.565373 15.261215,12.409407 C 15.208103,12.421326 15.269706,12.318529 15.247497,12.299544 z M 15.387633,12.033431 C 15.790429,11.969408 15.316138,12.482705 15.387633,12.033431 z M 16.264097,12.491439 C 16.234353,13.362516 16.13041,12.226023 15.967223,12.533431 C 16.013175,13.305433 15.580859,12.345349 15.951551,12.299544 C 15.924388,12.493266 16.271345,12.052482 16.264098,12.491439 L 16.264097,12.491439 z M 16.860779,12.818587 C 16.108868,13.136434 16.593607,11.807671 16.860779,12.458236 C 16.256045,12.262957 16.767194,12.89527 16.860779,12.818587 z M 17.13324,12.618392 C 17.123076,12.252523 16.918303,11.881648 17.276304,12.213071 C 17.240792,12.661275 17.642939,13.145134 17.133239,12.618392 L 17.13324,12.618392 z M 17.62396,12.655501 C 17.653303,11.784644 17.758976,12.91632 17.920836,12.613509 C 17.874257,11.840532 18.30902,12.798995 17.937486,12.846419 C 17.970378,12.656729 17.609813,13.089915 17.623961,12.655501 L 17.62396,12.655501 z M 18.533628,12.377181 C 18.576277,11.691721 18.760784,12.478855 18.676208,12.781951 C 18.413472,13.146566 17.758809,12.194564 18.533629,12.377181 L 18.533628,12.377181 z M 18.334412,12.574446 C 18.586684,13.163924 18.534767,12.005839 18.334411,12.574446 L 18.334412,12.574446 z M 19.287046,12.819564 C 18.139509,12.941466 19.50869,11.828297 19.18358,12.619368 C 18.534892,12.695538 19.363601,12.657008 19.287046,12.819564 z M 19.165955,12.511946 C 19.077545,12.209262 18.723259,12.609084 19.165955,12.511946 z M 20.511168,12.394271 C 19.662762,12.449794 20.868124,12.777667 20.334658,12.723895 C 19.488791,12.609785 20.478798,12.151971 20.511168,12.394271 z M 20.854429,12.402571 C 20.400199,12.822193 21.295556,12.848665 20.85443,12.402571 L 20.854429,12.402571 z M 20.601501,12.57347 C 21.235491,11.446921 21.227777,13.674123 20.601501,12.57347 z M 21.639097,12.316634 C 21.335215,12.498134 21.468363,12.384108 21.662291,12.765609 C 21.173406,12.943318 21.227982,12.736161 21.522887,12.657454 C 21.062974,12.607456 21.229901,12.143193 21.639098,12.316634 L 21.639097,12.316634 z M 22.093687,12.144271 C 22.473143,12.374425 21.854172,12.481198 22.234045,12.736556 C 22.30646,13.141056 21.580311,12.235508 21.950623,12.299544 C 21.943233,12.143544 21.921588,12.127284 22.093687,12.144271 z M 22.920347,12.450423 C 22.548227,12.329762 22.542578,13.311238 22.500425,12.467166 C 22.351896,12.288639 23.029698,12.198542 22.920347,12.450423 z M 23.497986,12.819564 C 22.350446,12.941469 23.719628,11.828296 23.394515,12.619368 C 22.745839,12.695537 23.574536,12.657009 23.497986,12.819564 z M 23.37689,12.511946 C 23.288486,12.209262 22.934194,12.609083 23.37689,12.511946 z M 23.903257,12.589583 C 23.446457,12.767246 24.145824,12.781728 23.903257,12.589583 z M 24.102476,12.534407 C 24.282538,13.249575 23.091629,12.541819 23.960386,12.46263 C 23.18223,12.427995 24.07196,12.017949 24.102477,12.534407 L 24.102476,12.534407 z M 24.499937,12.354232 C 25.001018,12.265731 24.531206,13.344406 24.600524,12.413802 C 24.486776,12.799677 24.438082,12.985521 24.363219,12.393294 C 24.340185,12.991925 24.14048,12.844517 24.203062,12.299544 C 24.341733,12.394656 24.345202,12.191958 24.499938,12.354232 L 24.499937,12.354232 z M 24.807554,12.394271 C 24.916937,12.1128 25.718691,12.692031 24.970648,12.729162 C 24.456332,12.776321 25.648914,12.454839 24.838733,12.405448 L 24.807554,12.394271 z M 14.883239,13.428646 C 14.829992,13.800262 15.145623,13.194712 15.138122,13.716243 C 15.019893,13.70527 14.905338,14.402898 14.848083,13.96429 C 14.598849,14.288073 14.463925,13.937143 14.696909,13.736741 C 14.415582,13.730887 14.819816,13.474064 14.883239,13.428646 z M 14.910094,13.716243 C 14.627132,13.687199 14.866856,14.085219 14.910094,13.716243 z M 15.247497,13.599544 C 15.601791,13.478231 15.688531,14.224165 15.582016,14.146419 C 14.836791,14.274457 15.692786,13.865373 15.261215,13.709407 C 15.208102,13.721326 15.269706,13.618528 15.247497,13.599544 z M 15.387633,13.333431 C 15.790429,13.269408 15.316138,13.782705 15.387633,13.333431 z M 16.264097,13.791439 C 16.234353,14.662515 16.13041,13.526023 15.967223,13.833431 C 16.013174,14.605433 15.580859,13.645348 15.951551,13.599544 C 15.924398,13.793272 16.271333,13.352473 16.264098,13.791439 L 16.264097,13.791439 z M 16.860779,14.118587 C 16.108869,14.436435 16.593605,13.107671 16.860779,13.758235 C 16.256045,13.562958 16.767193,14.19527 16.860779,14.118587 z M 17.13324,13.918392 C 17.123076,13.552523 16.918303,13.181648 17.276304,13.513071 C 17.240792,13.961276 17.642939,14.445133 17.133239,13.918392 L 17.13324,13.918392 z M 17.62396,13.955501 C 17.653303,13.084643 17.758976,14.21632 17.920836,13.913509 C 17.874256,13.140532 18.30902,14.098993 17.937486,14.146419 C 17.970379,13.956731 17.609811,14.389913 17.623961,13.955501 L 17.62396,13.955501 z M 18.533628,13.677181 C 18.576277,12.991722 18.760784,13.778855 18.676208,14.081951 C 18.413468,14.446565 17.758812,13.494562 18.533629,13.677181 L 18.533628,13.677181 z M 18.334412,13.874446 C 18.586684,14.463924 18.534767,13.305839 18.334411,13.874446 L 18.334412,13.874446 z M 19.287046,14.119564 C 18.139509,14.241466 19.50869,13.128296 19.18358,13.919368 C 18.534892,13.995538 19.363601,13.957007 19.287046,14.119564 z M 19.165955,13.811946 C 19.077545,13.509262 18.723259,13.909084 19.165955,13.811946 z M 20.511168,13.694271 C 19.662762,13.749794 20.868124,14.077667 20.334658,14.023895 C 19.488791,13.909785 20.478798,13.451971 20.511168,13.694271 z M 20.661558,13.599544 C 21.015852,13.478232 21.102593,14.224166 20.99608,14.146419 C 20.250851,14.274456 21.106849,13.865375 20.675279,13.709407 C 20.622163,13.721328 20.683767,13.618529 20.661558,13.599544 z M 20.801697,13.333431 C 21.204488,13.269408 20.7302,13.782705 20.801697,13.333431 z M 21.639097,13.616634 C 21.335215,13.798135 21.468363,13.684108 21.662291,14.065608 C 21.173406,14.243318 21.227982,14.036161 21.522887,13.957454 C 21.062974,13.907455 21.229901,13.443192 21.639098,13.616634 L 21.639097,13.616634 z M 22.093687,13.444271 C 22.473143,13.674424 21.854171,13.781198 22.234045,14.036556 C 22.306459,14.441054 21.580311,13.535508 21.950623,13.599544 C 21.943233,13.443542 21.921589,13.427285 22.093687,13.444271 z M 22.920347,13.750423 C 22.548228,13.629761 22.542577,14.611238 22.500425,13.767165 C 22.351896,13.588639 23.029698,13.498541 22.920347,13.750423 z M 23.497986,14.119564 C 22.350446,14.241468 23.719628,13.128295 23.394515,13.919368 C 22.745838,13.995537 23.574537,13.957009 23.497986,14.119564 z M 23.37689,13.811946 C 23.288486,13.509262 22.934194,13.909083 23.37689,13.811946 z M 23.903257,13.889583 C 23.446457,14.067247 24.145825,14.081727 23.903257,13.889583 z M 24.102476,13.834407 C 24.282537,14.549574 23.091629,13.841819 23.960386,13.76263 C 23.182231,13.727995 24.071959,13.317948 24.102477,13.834407 L 24.102476,13.834407 z M 24.499937,13.654232 C 25.001018,13.565728 24.531207,14.644406 24.600524,13.713802 C 24.486776,14.099677 24.438082,14.28552 24.363219,13.693294 C 24.340185,14.291925 24.14048,14.144515 24.203062,13.599544 C 24.341735,13.694657 24.345199,13.491957 24.499938,13.654232 L 24.499937,13.654232 z M 24.807554,13.694271 C 24.916937,13.4128 25.718691,13.992032 24.970648,14.029162 C 24.456332,14.076321 25.648914,13.754839 24.838733,13.705448 L 24.807554,13.694271 z M 14.883239,14.728646 C 14.829992,15.100263 15.145623,14.494713 15.138122,15.016243 C 15.019893,15.00527 14.905338,15.702898 14.848083,15.26429 C 14.598849,15.588073 14.463925,15.237143 14.696909,15.036741 C 14.415582,15.030887 14.819816,14.774064 14.883239,14.728646 z M 14.910094,15.016243 C 14.627132,14.987199 14.866856,15.385219 14.910094,15.016243 z M 15.247497,14.899544 C 15.601791,14.778232 15.688531,15.524165 15.582016,15.446419 C 14.836791,15.574457 15.692786,15.165373 15.261215,15.009407 C 15.208102,15.021326 15.269706,14.918528 15.247497,14.899544 z M 15.387633,14.633431 C 15.790429,14.569408 15.316138,15.082703 15.387633,14.633431 z M 16.264097,15.091439 C 16.234353,15.962515 16.13041,14.826023 15.967223,15.133431 C 16.013174,15.905433 15.580859,14.945348 15.951551,14.899544 C 15.924398,15.093272 16.271332,14.652472 16.264098,15.091439 L 16.264097,15.091439 z M 16.860779,15.418587 C 16.108869,15.736435 16.593606,14.407671 16.860779,15.058235 C 16.256045,14.862958 16.767193,15.49527 16.860779,15.418587 z M 17.13324,15.218392 C 17.123076,14.852523 16.918303,14.481648 17.276304,14.813071 C 17.240792,15.261276 17.642939,15.745133 17.133239,15.218392 L 17.13324,15.218392 z M 17.62396,15.255501 C 17.653303,14.384643 17.758975,15.51632 17.920836,15.213509 C 17.874256,14.440532 18.30902,15.398994 17.937486,15.446419 C 17.970379,15.256731 17.609811,15.689912 17.623961,15.255501 L 17.62396,15.255501 z M 18.533628,14.977181 C 18.576277,14.291722 18.760784,15.078856 18.676208,15.381951 C 18.413468,15.746565 17.758812,14.794562 18.533629,14.977181 L 18.533628,14.977181 z M 18.334412,15.174446 C 18.586684,15.763924 18.534767,14.605839 18.334411,15.174446 L 18.334412,15.174446 z M 19.287046,15.419564 C 18.139509,15.541465 19.508691,14.428296 19.18358,15.219368 C 18.534892,15.295539 19.363602,15.257007 19.287046,15.419564 z M 19.165955,15.111946 C 19.077546,14.809262 18.723259,15.209084 19.165955,15.111946 z M 20.511168,14.994271 C 19.662762,15.049794 20.868124,15.377667 20.334658,15.323895 C 19.488791,15.209785 20.478798,14.751971 20.511168,14.994271 z M 21.037537,14.916634 C 20.733653,15.098134 20.866798,14.984107 21.060729,15.365609 C 20.571844,15.543316 20.626416,15.336161 20.921325,15.257454 C 20.461411,15.207454 20.628338,14.743192 21.037536,14.916634 L 21.037537,14.916634 z M 21.492126,14.744271 C 21.871576,14.974422 21.252612,15.081202 21.632483,15.336556 C 21.704888,15.741054 20.978756,14.835513 21.349058,14.899544 C 21.341665,14.743539 21.32003,14.727287 21.492126,14.744271 z M 22.318787,15.050423 C 21.946663,14.929757 21.941016,15.911238 21.898865,15.067165 C 21.750336,14.888641 22.428133,14.798538 22.318787,15.050423 z M 22.466248,14.899544 C 22.820542,14.778231 22.907282,15.524164 22.800765,15.446419 C 22.055543,15.574458 22.911535,15.165371 22.479965,15.009407 C 22.426853,15.021325 22.488458,14.918527 22.466248,14.899544 z M 22.606382,14.633431 C 23.009182,14.569408 22.534888,15.082703 22.606382,14.633431 z M 23.482847,15.091439 C 23.453103,15.962515 23.34916,14.826023 23.185973,15.133431 C 23.231923,15.905433 22.799608,14.945348 23.1703,14.899544 C 23.143145,15.093271 23.490085,14.652473 23.482848,15.091439 L 23.482847,15.091439 z M 23.95355,15.164192 C 23.69748,14.599766 23.750353,15.709738 23.953551,15.164192 L 23.95355,15.164192 z M 24.096619,15.405403 C 23.974317,15.885642 23.358063,15.489203 23.953551,15.421517 C 23.367544,15.548399 23.758857,14.56975 24.096619,14.962753 C 24.096619,15.110303 24.096619,15.257853 24.096619,15.405403 z M 24.205994,14.994271 C 24.315377,14.7128 25.11713,15.292032 24.369087,15.329162 C 23.854773,15.376323 25.047348,15.054838 24.237169,15.005447 L 24.205994,14.994271 z M 14.645934,17.499544 C 15.000228,17.378232 15.086969,18.124165 14.980454,18.046419 C 14.235228,18.174457 15.091223,17.765373 14.659653,17.609407 C 14.60654,17.621327 14.668144,17.518529 14.645934,17.499544 z M 14.786071,17.233431 C 15.188866,17.169408 14.714575,17.682705 14.786071,17.233431 z M 15.662536,17.691439 C 15.632792,18.562515 15.528847,17.426023 15.365661,17.733431 C 15.411612,18.505433 14.979296,17.545349 15.349989,17.499544 C 15.322838,17.693274 15.669766,17.252469 15.662536,17.691438 L 15.662536,17.691439 z M 16.078062,17.344271 C 16.457518,17.574425 15.838547,17.681199 16.21842,17.936556 C 16.290836,18.341055 15.564688,17.435512 15.934997,17.499544 C 15.927607,17.343543 15.905964,17.327284 16.078062,17.344271 z M 17.281187,17.554232 C 17.782268,17.465728 17.312456,18.544406 17.381774,17.613802 C 17.268026,17.999677 17.219332,18.18552 17.144469,17.593294 C 17.121435,18.191925 16.92173,18.044517 16.984312,17.499544 C 17.122984,17.594656 17.12645,17.391958 17.281188,17.554231 L 17.281187,17.554232 z M 17.887632,17.789583 C 17.430833,17.967246 18.130198,17.981727 17.887632,17.789583 z M 18.086851,17.734407 C 18.266912,18.449575 17.076005,17.741819 17.944761,17.66263 C 17.166605,17.627995 18.056335,17.217948 18.086852,17.734407 L 18.086851,17.734407 z M 18.255308,17.499544 C 18.609602,17.378233 18.696344,18.124166 18.58983,18.046419 C 17.844601,18.174456 18.700599,17.765375 18.269029,17.609407 C 18.215913,17.621328 18.277517,17.51853 18.255308,17.499544 z M 18.395447,17.233431 C 18.798238,17.169407 18.32395,17.682705 18.395447,17.233431 z M 19.271912,17.691439 C 19.242168,18.562516 19.138223,17.426022 18.975036,17.733431 C 19.020988,18.505433 18.588672,17.545349 18.959365,17.499544 C 18.932217,17.693275 19.279138,17.252468 19.271911,17.691438 L 19.271912,17.691439 z M 19.801697,17.28763 C 19.542596,17.669116 19.914907,18.745361 19.537536,17.732454 C 19.572823,17.598778 19.563585,17.218981 19.801697,17.28763 z M 20.102964,17.28763 C 20.787925,17.376206 19.865921,18.876365 20.229918,17.732454 L 20.198668,17.513704 L 20.102965,17.28763 L 20.102964,17.28763 z M 21.669373,18.116243 C 21.370654,18.287863 21.134461,17.624173 21.433043,17.322786 C 22.003377,17.078326 21.077006,17.991808 21.669373,18.116243 z M 16.225037,18.816633 C 15.921153,18.998135 16.054298,18.884106 16.248229,19.265609 C 15.759344,19.443316 15.813917,19.236161 16.108825,19.157454 C 15.648912,19.107454 15.815838,18.643192 16.225036,18.816634 L 16.225037,18.816633 z M 16.679626,18.64427 C 17.059076,18.874422 16.440113,18.981202 16.819983,19.236555 C 16.892389,19.641054 16.166255,18.735513 16.536558,18.799543 C 16.529166,18.643539 16.507529,18.627285 16.679626,18.64427 z M 17.330503,18.87718 C 17.373152,18.191721 17.557659,18.978856 17.473083,19.281951 C 17.210342,19.646566 16.555688,18.694562 17.330504,18.877181 L 17.330503,18.87718 z M 17.131287,19.074446 C 17.383559,19.663924 17.331642,18.505839 17.131286,19.074446 L 17.131287,19.074446 z M 17.765076,18.827375 C 18.213221,18.764734 17.694191,19.299856 17.765076,18.827375 z M 17.765076,19.167219 C 18.213322,19.104528 17.693779,19.641894 17.765076,19.167219 z M 18.366636,18.827375 C 18.81479,18.764734 18.295752,19.299856 18.366636,18.827375 z M 18.366636,19.167219 C 18.814892,19.104528 18.29534,19.641894 18.366636,19.167219 z M 19.267029,19.318586 C 18.51512,19.636435 18.999855,18.307672 19.267029,18.958235 C 18.662295,18.762959 19.173443,19.39527 19.267029,19.318586 z M 19.651304,18.902571 C 19.197073,19.322192 20.092431,19.348665 19.651305,18.902571 L 19.651304,18.902571 z M 19.398376,19.073469 C 20.032367,17.946922 20.024651,20.174123 19.398376,19.07347 L 19.398376,19.073469 z M 20.03021,19.1555 C 20.059553,18.284643 20.165226,19.41632 20.327086,19.113509 C 20.280506,18.340532 20.71527,19.298993 20.343736,19.346418 C 20.376629,19.15673 20.016061,19.589913 20.030211,19.155501 L 20.03021,19.1555 z M 20.890562,18.64427 C 21.270018,18.874424 20.651047,18.981199 21.03092,19.236555 C 21.103335,19.641054 20.377186,18.735508 20.747498,18.799543 C 20.740108,18.643543 20.718463,18.627283 20.890562,18.64427 z M 17.503357,20.194269 C 16.654948,20.249793 17.860309,20.577668 17.326848,20.523895 C 16.480983,20.40978 17.470981,19.951979 17.503357,20.194269 z M 18.104918,20.194269 C 17.256513,20.249793 18.461872,20.577669 17.928408,20.523895 C 17.082544,20.40978 18.072542,19.951979 18.104918,20.194269 z M 19.236753,19.917416 C 19.356737,20.546434 18.854098,19.933691 19.236753,19.917416 z M 18.986753,19.917416 C 19.106737,20.546434 18.604098,19.933691 18.986753,19.917416 z M 19.417418,19.917416 C 19.641477,20.076088 19.662485,20.357951 19.804845,19.917416 C 19.995746,19.937134 19.883477,20.977577 19.741636,20.520002 C 19.689283,19.846079 19.460692,21.094066 19.417418,20.456793 C 19.417418,20.277 19.417418,20.097208 19.417418,19.917416 z M 20.490171,20.619562 C 19.342634,20.741468 20.711816,19.628294 20.386705,20.419369 C 19.738017,20.495537 20.566725,20.457009 20.490171,20.619562 z M 20.36908,20.311947 C 20.280672,20.009262 19.926383,20.409081 20.36908,20.311947 z M 20.742615,20.41839 C 20.732451,20.05252 20.527679,19.681649 20.885679,20.013072 C 20.850168,20.461276 21.252314,20.945135 20.742614,20.418391 L 20.742615,20.41839 z M 21.344175,20.41839 C 21.334008,20.052522 21.129247,19.681648 21.487244,20.013072 C 21.451733,20.461274 21.853871,20.945136 21.344176,20.418391 L 21.344175,20.41839 z M 22.057554,20.202572 C 21.603323,20.622192 22.498682,20.648666 22.057555,20.202571 L 22.057554,20.202572 z M 21.804626,20.37347 C 22.438615,19.246919 22.430903,21.474123 21.804626,20.37347 z M 22.594175,20.508236 C 22.972069,20.440754 22.526192,20.901443 22.594175,20.508236 z M 22.594175,19.917416 C 22.963301,19.921126 22.53673,20.828344 22.594175,20.110822 C 22.594175,20.046353 22.594175,19.981884 22.594175,19.917416 z M 23.447693,19.917416 C 23.567677,20.546434 23.065037,19.933691 23.447693,19.917416 z M 23.197693,19.917416 C 23.317677,20.546434 22.815037,19.933691 23.197693,19.917416 z M 17.503357,21.49427 C 16.654948,21.549792 17.86031,21.877667 17.326847,21.823895 C 16.480981,21.709783 17.470985,21.251973 17.503357,21.49427 z M 18.104918,21.49427 C 17.256512,21.549792 18.461873,21.877668 17.928408,21.823895 C 17.082542,21.709783 18.072546,21.251973 18.104918,21.49427 z M 19.232847,21.416634 C 18.928964,21.598135 19.062114,21.484107 19.256041,21.865608 C 18.767156,22.043317 18.821732,21.83616 19.116637,21.757454 C 18.656725,21.707455 18.823651,21.243191 19.232848,21.416634 L 19.232847,21.416634 z M 19.687437,21.24427 C 20.066893,21.474425 19.447922,21.581198 19.827795,21.836555 C 19.90021,22.241055 19.174061,21.335508 19.544373,21.399544 C 19.536983,21.243543 19.515338,21.227283 19.687437,21.24427 z M 20.338318,21.47718 C 20.380967,20.791722 20.565467,21.578859 20.480894,21.881951 C 20.218154,22.246566 19.5635,21.294562 20.338317,21.47718 L 20.338318,21.47718 z M 20.139097,21.674446 C 20.391374,22.263922 20.339453,21.10584 20.139098,21.674446 L 20.139097,21.674446 z M 20.772886,21.427376 C 21.22104,21.364734 20.702002,21.899856 20.772886,21.427376 z M 20.772886,21.76722 C 21.221142,21.704529 20.70159,22.241895 20.772886,21.76722 z M 21.374451,21.427376 C 21.822596,21.364734 21.303566,21.899856 21.374451,21.427376 z M 21.374451,21.76722 C 21.822697,21.704529 21.303154,22.241895 21.374451,21.76722 z M 22.294861,21.919563 C 21.147321,22.041469 22.516503,20.928294 22.19139,21.719368 C 21.542714,21.795536 22.371411,21.757009 22.294861,21.919563 z M 22.173765,21.611946 C 22.085361,21.309262 21.731069,21.709081 22.173765,21.611946 z M 22.881287,21.591438 C 22.851543,22.462514 22.747599,21.326025 22.584411,21.63343 C 22.630364,22.405433 22.198047,21.445349 22.56874,21.399544 C 22.541591,21.593274 22.888514,21.152469 22.881286,21.591438 L 22.881287,21.591438 z M 23.346128,21.47718 C 23.388777,20.791722 23.573284,21.578857 23.488708,21.881951 C 23.225968,22.246565 22.571312,21.294564 23.346129,21.47718 L 23.346128,21.47718 z M 23.146912,21.674446 C 23.399184,22.263922 23.347267,21.10584 23.146911,21.674446 L 23.146912,21.674446 z M 23.750425,21.718391 C 23.740258,21.352524 23.535497,20.981647 23.893494,21.313071 C 23.857982,21.761273 24.260121,22.245135 23.750426,21.718391 L 23.750425,21.718391 z M 17.503357,22.79427 C 16.654948,22.849791 17.86031,23.177666 17.326847,23.123894 C 16.480981,23.009782 17.470985,22.551973 17.503357,22.79427 z M 18.104918,22.79427 C 17.256512,22.849792 18.461873,23.177667 17.928408,23.123894 C 17.082542,23.009782 18.072546,22.551973 18.104918,22.79427 z M 19.236753,22.517414 C 19.356737,23.146432 18.854098,22.53369 19.236753,22.517414 z M 18.986753,22.517414 C 19.106737,23.146432 18.604098,22.53369 18.986753,22.517414 z M 19.350525,22.517414 C 19.6698,22.660202 19.391182,23.310299 19.654945,22.706381 C 19.924148,23.338394 19.632955,22.626759 19.952576,22.517414 C 19.962851,22.775457 19.824843,23.638515 19.680733,22.999326 C 19.692372,22.807148 19.378928,23.666166 19.39398,22.870014 C 19.379495,22.752481 19.36501,22.634947 19.350525,22.517414 z M 20.475037,22.891438 C 20.445226,23.761076 20.342078,22.628997 20.178161,22.93343 C 20.142214,23.640589 19.949937,22.877785 20.036072,22.551122 C 20.246238,22.374162 20.176749,22.923686 20.475036,22.891438 L 20.475037,22.891438 z M 20.895447,22.989582 C 20.438643,23.167245 21.13801,23.181729 20.895447,22.989582 z M 21.094666,22.934406 C 21.27473,23.649577 20.083812,22.941817 20.952576,22.862631 C 20.174421,22.827993 21.064147,22.417948 21.094665,22.934407 L 21.094666,22.934406 z M 21.492126,22.54427 C 21.871575,22.774424 21.252613,22.8812 21.632483,23.136555 C 21.704891,23.541059 20.978755,22.635513 21.349058,22.699545 C 21.341667,22.543541 21.320027,22.527283 21.492126,22.54427 z M 22.466248,22.699545 C 22.820542,22.578233 22.907283,23.324163 22.800765,23.24642 C 22.055543,23.374459 22.911535,22.96537 22.479965,22.809406 C 22.426854,22.821324 22.488456,22.718529 22.466248,22.699545 z M 22.606382,22.43343 C 23.009182,22.369407 22.534887,22.882707 22.606382,22.43343 z M 23.443787,22.716635 C 23.139904,22.898135 23.273047,22.784105 23.466979,23.165608 C 22.978095,23.343317 23.032665,23.13616 23.327575,23.057454 C 22.867662,23.007453 23.034588,22.543192 23.443786,22.716634 L 23.443787,22.716635 z M 24.510193,23.305502 C 23.994302,23.723219 24.591724,23.031617 24.192596,22.701494 C 24.538624,22.829938 24.398149,23.177779 24.65006,22.699545 C 24.853301,22.685115 24.504694,23.174886 24.510193,23.305502 z M 25.065369,22.80257 C 24.611132,23.222184 25.506493,23.248674 25.065368,22.802571 L 25.065369,22.80257 z M 24.812437,22.973469 C 25.446434,21.846925 25.43871,24.074122 24.812438,22.973469 L 24.812437,22.973469 z M 25.444275,23.055502 C 25.473618,22.184646 25.579283,23.316319 25.741149,23.013509 C 25.694573,22.240533 26.129327,23.198999 25.757797,23.24642 C 25.790691,23.056729 25.430126,23.489915 25.444274,23.055501 L 25.444275,23.055502 z M 26.529722,22.850424 C 26.157602,22.72976 26.151953,23.71124 26.1098,22.867166 C 25.961271,22.688642 26.639074,22.598539 26.529722,22.850424 z M 27.693787,22.891438 C 27.664043,23.762515 27.560099,22.626027 27.396911,22.93343 C 27.442864,23.705434 27.010547,22.745352 27.38124,22.699545 C 27.354073,22.893262 27.701033,22.452482 27.693786,22.891438 L 27.693787,22.891438 z M 28.114197,22.989582 C 27.657393,23.167245 28.35676,23.181729 28.114197,22.989582 z M 28.313416,22.934406 C 28.49348,23.649577 27.302562,22.941817 28.171326,22.862631 C 27.393171,22.827993 28.282897,22.417948 28.313415,22.934407 L 28.313416,22.934406 z M 28.710876,22.75423 C 29.21195,22.665732 28.742148,23.744404 28.811461,22.813802 C 28.697719,23.199676 28.649014,23.385525 28.574157,22.793294 C 28.551117,23.391922 28.351422,23.244519 28.414001,22.699545 C 28.552666,22.794653 28.556144,22.591959 28.710876,22.754231 L 28.710876,22.75423 z M 29.513611,23.219563 C 28.366072,23.341471 29.735252,22.228294 29.41014,23.019367 C 28.761464,23.095535 29.590159,23.05701 29.513611,23.219563 z M 29.392515,22.911945 C 29.30411,22.609263 28.949819,23.009081 29.392515,22.911945 z M 29.791929,23.108234 C 30.169822,23.040752 29.723945,23.501445 29.791929,23.108234 z M 29.9223,23.050617 C 29.579121,23.03645 30.217483,22.451653 29.690856,22.627057 C 30.17479,22.24227 30.102818,22.730912 29.9223,23.050617 z M 31.268003,22.517414 C 31.387987,23.146432 30.885348,22.53369 31.268003,22.517414 z M 31.018003,22.517414 C 31.137987,23.146432 30.635348,22.53369 31.018003,22.517414 z M 17.503357,24.094271 C 16.654948,24.149792 17.86031,24.477667 17.326847,24.423895 C 16.480981,24.309783 17.470985,23.851974 17.503357,24.094271 z M 18.104918,24.094271 C 17.256512,24.149793 18.461873,24.477668 17.928408,24.423895 C 17.082542,24.309783 18.072546,23.851974 18.104918,24.094271 z M 19.232847,24.016634 C 18.928965,24.198135 19.062114,24.084107 19.256041,24.465608 C 18.767158,24.643318 18.82173,24.43616 19.116637,24.357454 C 18.656725,24.307455 18.823651,23.843191 19.232848,24.016634 L 19.232847,24.016634 z M 19.687437,23.844271 C 20.066893,24.074425 19.447922,24.181198 19.827795,24.436555 C 19.90021,24.841056 19.174061,23.935508 19.544373,23.999544 C 19.536983,23.843544 19.515338,23.827284 19.687437,23.844271 z M 20.338318,24.077181 C 20.380967,23.391722 20.565467,24.17886 20.480894,24.481952 C 20.218154,24.846566 19.563501,23.894561 20.338317,24.07718 L 20.338318,24.077181 z M 20.139097,24.274446 C 20.391375,24.86392 20.339452,23.70584 20.139098,24.274446 L 20.139097,24.274446 z M 20.772886,24.027376 C 21.22104,23.964734 20.702002,24.499857 20.772886,24.027376 z M 20.772886,24.36722 C 21.221142,24.304529 20.70159,24.841895 20.772886,24.36722 z M 21.374451,24.027376 C 21.822596,23.964734 21.303566,24.499857 21.374451,24.027376 z M 21.374451,24.36722 C 21.822697,24.304529 21.303154,24.841895 21.374451,24.36722 z M 22.117615,23.951693 C 22.379889,23.94898 22.102076,24.42762 21.974546,24.546419 C 22.003247,24.051767 21.671001,23.996088 22.231116,23.786653 C 22.478722,23.89774 22.116208,23.861253 22.117614,23.951692 L 22.117615,23.951693 z M 22.5473,24.318392 C 22.537133,23.952524 22.332372,23.581647 22.690369,23.913071 C 22.654858,24.361273 23.056996,24.845135 22.547301,24.318391 L 22.5473,24.318392 z M 23.038025,24.355501 C 23.067368,23.484645 23.173033,24.61632 23.334899,24.313509 C 23.288323,23.540532 23.723077,24.498997 23.351547,24.546419 C 23.384443,24.356733 23.023869,24.789908 23.038024,24.355501 L 23.038025,24.355501 z M 24.045347,24.016634 C 23.741465,24.198135 23.874614,24.084107 24.068541,24.465608 C 23.579658,24.643318 23.63423,24.43616 23.929137,24.357454 C 23.469225,24.307455 23.636151,23.843191 24.045348,24.016634 L 24.045347,24.016634 z M 24.685972,24.191439 C 24.656161,25.061075 24.553014,23.928996 24.389098,24.23343 C 24.353148,24.940589 24.160872,24.177783 24.247007,23.851121 C 24.457174,23.674169 24.387687,24.223683 24.685973,24.191438 L 24.685972,24.191439 z M 24.983826,24.36722 C 25.417861,24.394692 24.787205,24.985108 24.983826,24.373126 L 24.983826,24.36722 z M 24.983826,24.027376 C 25.431971,23.964734 24.912941,24.499857 24.983826,24.027376 z M 16.225037,26.616632 C 15.921153,26.798135 16.054299,26.684106 16.248229,27.065608 C 15.759346,27.243318 15.813915,27.03616 16.108825,26.957454 C 15.648912,26.907455 15.815838,26.443192 16.225036,26.616633 L 16.225037,26.616632 z M 16.679626,26.444269 C 17.059075,26.674423 16.440114,26.781202 16.819983,27.036555 C 16.892392,27.441057 16.166255,26.535514 16.536558,26.599545 C 16.529167,26.443541 16.507527,26.427282 16.679626,26.444269 z M 17.330503,26.677179 C 17.373153,25.991723 17.557659,26.778859 17.473083,27.081952 C 17.210343,27.446565 16.555687,26.494562 17.330504,26.67718 L 17.330503,26.677179 z M 17.131287,26.874447 C 17.383561,27.463919 17.33164,26.305839 17.131286,26.874446 L 17.131287,26.874447 z M 17.765076,26.627377 C 18.21322,26.564735 17.694191,27.099853 17.765076,26.627377 z M 17.765076,26.967218 C 18.213322,26.904527 17.693778,27.441898 17.765076,26.967218 z M 18.366636,26.627377 C 18.81479,26.564735 18.295752,27.099853 18.366636,26.627377 z M 18.366636,26.967218 C 18.814892,26.904527 18.295339,27.441898 18.366636,26.967218 z M 19.232847,26.616632 C 18.928964,26.798135 19.062115,26.684107 19.256041,27.065608 C 18.767157,27.243318 18.82173,27.036159 19.116637,26.957454 C 18.656724,26.907455 18.823651,26.443191 19.232848,26.616633 L 19.232847,26.616632 z M 19.687437,26.444269 C 20.066893,26.674425 19.447923,26.781198 19.827795,27.036555 C 19.900212,27.441057 19.17406,26.535509 19.544373,26.599545 C 19.536985,26.443545 19.515337,26.427281 19.687437,26.444269 z M 20.514097,26.750422 C 20.141976,26.629764 20.136328,27.611238 20.094175,26.767166 C 19.945646,26.588641 20.623447,26.498541 20.514097,26.750422 z M 20.661558,26.599545 C 21.015852,26.478235 21.102594,27.224164 20.99608,27.14642 C 20.250851,27.274457 21.106848,26.865374 20.675279,26.709408 C 20.622163,26.721329 20.683767,26.61853 20.661558,26.599545 z M 20.801697,26.333429 C 21.204488,26.269406 20.7302,26.782703 20.801697,26.333429 z M 21.678162,26.791437 C 21.648418,27.662514 21.544474,26.526027 21.381286,26.83343 C 21.427239,27.605434 20.994922,26.645351 21.365615,26.599545 C 21.338471,26.793278 21.685382,26.352464 21.678161,26.791438 L 21.678162,26.791437 z M 22.148865,26.864191 C 21.892791,26.299768 21.945666,27.409735 22.148864,26.864192 L 22.148865,26.864191 z M 22.291929,27.105404 C 22.16963,27.585641 21.553373,27.189203 22.148864,27.121516 C 21.562863,27.248405 21.954163,26.269748 22.291929,26.662753 C 22.291929,26.810304 22.291929,26.957854 22.291929,27.105404 z M 23.482847,26.791437 C 23.453103,27.662514 23.349161,26.526028 23.185973,26.83343 C 23.231923,27.605434 22.799608,26.645351 23.1703,26.599545 C 23.14315,26.793275 23.490077,26.352467 23.482848,26.791438 L 23.482847,26.791437 z M 23.903257,26.889584 C 23.446457,27.067244 24.145823,27.081728 23.903257,26.889584 z M 24.102476,26.834408 C 24.282539,27.549575 23.091628,26.84182 23.960386,26.76263 C 23.182232,26.727995 24.071959,26.317946 24.102477,26.834407 L 24.102476,26.834408 z M 24.499937,26.65423 C 25.00102,26.565734 24.531205,27.644405 24.600524,26.713801 C 24.486775,27.099679 24.438083,27.28552 24.363219,26.693294 C 24.340185,27.291924 24.14048,27.144518 24.203062,26.599545 C 24.34173,26.694654 24.345207,26.491959 24.499938,26.654231 L 24.499937,26.65423 z M 25.302671,27.119562 C 24.155134,27.241468 25.524316,26.128294 25.199205,26.919369 C 24.550516,26.995539 25.379227,26.957006 25.302671,27.119562 z M 25.18158,26.811947 C 25.093172,26.509262 24.738883,26.909081 25.18158,26.811947 z M 25.585386,26.967218 C 26.01943,26.994686 25.388766,27.58511 25.585386,26.973127 L 25.585386,26.967218 z M 25.585386,26.627377 C 26.03354,26.564735 25.514502,27.099853 25.585386,26.627377 z M 16.225037,27.916634 C 15.921154,28.098134 16.054298,27.984106 16.248229,28.365608 C 15.759346,28.543318 15.813915,28.33616 16.108825,28.257454 C 15.648912,28.207454 15.815837,27.743192 16.225036,27.916633 L 16.225037,27.916634 z M 16.679626,27.74427 C 17.059076,27.974422 16.440113,28.081201 16.819983,28.336555 C 16.892389,28.741055 16.166255,27.835513 16.536558,27.899544 C 16.529166,27.743539 16.507529,27.727285 16.679626,27.74427 z M 17.330503,27.97718 C 17.373152,27.291722 17.557659,28.078857 17.473083,28.381951 C 17.210344,28.746565 16.555687,27.794563 17.330504,27.97718 L 17.330503,27.97718 z M 17.131287,28.174446 C 17.38356,28.763921 17.33164,27.605839 17.131286,28.174446 L 17.131287,28.174446 z M 17.765076,27.927376 C 18.213221,27.864734 17.694191,28.399856 17.765076,27.927376 z M 17.765076,28.26722 C 18.213322,28.204529 17.693779,28.741895 17.765076,28.26722 z M 18.366636,27.927376 C 18.81479,27.864734 18.295752,28.399856 18.366636,27.927376 z M 18.366636,28.26722 C 18.814892,28.204529 18.29534,28.741895 18.366636,28.26722 z M 19.14105,28.164192 C 18.884982,27.599765 18.937851,28.709736 19.141051,28.164192 L 19.14105,28.164192 z M 19.284119,28.405403 C 19.161816,28.885641 18.545564,28.489203 19.141051,28.421516 C 18.555045,28.5484 18.946356,27.569748 19.284119,27.962753 C 19.284119,28.110303 19.284119,28.257853 19.284119,28.405403 z M 19.888611,28.419563 C 18.741071,28.541468 20.110253,27.428294 19.78514,28.219368 C 19.136463,28.295538 19.965164,28.257006 19.888611,28.419563 z M 19.767515,28.111946 C 19.679111,27.809262 19.324819,28.209081 19.767515,28.111946 z M 20.289001,27.74427 C 20.668451,27.974422 20.049488,28.081201 20.429358,28.336555 C 20.501764,28.741055 19.77563,27.835513 20.145933,27.899544 C 20.138541,27.743539 20.116904,27.727285 20.289001,27.74427 z M 20.742615,28.218391 C 20.732451,27.852522 20.527678,27.481648 20.885679,27.813071 C 20.850167,28.261276 21.252314,28.745133 20.742614,28.218391 L 20.742615,28.218391 z M 21.263123,27.899544 C 21.617417,27.778231 21.704157,28.524163 21.59764,28.446419 C 20.852418,28.574458 21.708409,28.165371 21.27684,28.009407 C 21.223728,28.021325 21.285333,27.918527 21.263123,27.899544 z M 21.403257,27.63343 C 21.806057,27.569407 21.331763,28.082704 21.403257,27.63343 z M 22.279722,28.091438 C 22.249978,28.962513 22.146035,27.826026 21.982848,28.13343 C 22.028798,28.905433 21.596483,27.945349 21.967175,27.899544 C 21.940023,28.093273 22.286955,27.65247 22.279723,28.091438 L 22.279722,28.091438 z M 22.896421,28.419563 C 21.748884,28.541466 23.118066,27.428295 22.792955,28.219368 C 22.144266,28.295539 22.972978,28.257005 22.896421,28.419563 z M 22.77533,28.111946 C 22.68692,27.809262 22.332634,28.209081 22.77533,28.111946 z M 23.411072,27.68763 C 23.151971,28.069115 23.524283,29.14536 23.146911,28.132454 C 23.182198,27.998778 23.172959,27.618979 23.411072,27.68763 z M 24.045347,27.916634 C 23.741465,28.098134 23.874613,27.984107 24.068541,28.365608 C 23.579657,28.543318 23.63423,28.336159 23.929137,28.257454 C 23.469225,28.207454 23.636151,27.743192 24.045348,27.916633 L 24.045347,27.916634 z M 24.499937,27.74427 C 24.879393,27.974425 24.260422,28.081198 24.640295,28.336555 C 24.71271,28.741055 23.986561,27.835508 24.356873,27.899544 C 24.349483,27.743543 24.327838,27.727283 24.499937,27.74427 z M 25.150818,27.97718 C 25.193467,27.291722 25.377967,28.078859 25.293394,28.381951 C 25.030655,28.746566 24.376001,27.794561 25.150817,27.97718 L 25.150818,27.97718 z M 24.951597,28.174446 C 25.203875,28.76392 25.151952,27.605839 24.951598,28.174446 L 24.951597,28.174446 z M 25.585386,27.927376 C 26.03354,27.864734 25.514502,28.399856 25.585386,27.927376 z M 25.585386,28.26722 C 26.033642,28.204529 25.51409,28.741895 25.585386,28.26722 z M 26.186951,27.927376 C 26.635096,27.864734 26.116066,28.399856 26.186951,27.927376 z M 26.186951,28.26722 C 26.635197,28.204529 26.115654,28.741895 26.186951,28.26722 z M 27.087339,28.418587 C 26.335429,28.736433 26.820173,27.40767 27.087339,28.058235 C 26.482611,27.862961 26.993753,28.495265 27.087339,28.418587 z M 27.278748,27.899544 C 27.633042,27.778231 27.719782,28.524163 27.613265,28.446419 C 26.868043,28.574458 27.724034,28.165371 27.292465,28.009407 C 27.239353,28.021325 27.300958,27.918527 27.278748,27.899544 z M 27.418882,27.63343 C 27.821682,27.569407 27.347388,28.082704 27.418882,27.63343 z M 28.295347,28.091438 C 28.265603,28.962513 28.16166,27.826026 27.998473,28.13343 C 28.044423,28.905433 27.612108,27.945349 27.9828,27.899544 C 27.955648,28.093273 28.30258,27.65247 28.295348,28.091438 L 28.295347,28.091438 z M 28.599058,28.26722 C 29.013245,28.309403 28.391437,28.877821 28.599058,28.273126 L 28.599058,28.26722 z M 30.100037,28.091438 C 30.070293,28.962514 29.966349,27.826025 29.803161,28.13343 C 29.849114,28.905433 29.416797,27.945349 29.78749,27.899544 C 29.760344,28.093276 30.107261,27.652466 30.100036,28.091438 L 30.100037,28.091438 z M 30.520447,28.189583 C 30.063642,28.367242 30.76301,28.38173 30.520447,28.189583 z M 30.719666,28.134407 C 30.899726,28.849576 29.708815,28.141817 30.577576,28.06263 C 29.79942,28.027995 30.689148,27.617947 30.719665,28.134407 L 30.719666,28.134407 z M 31.117126,27.954231 C 31.618199,27.865729 31.148399,28.944404 31.217711,28.013801 C 31.103969,28.399679 31.055264,28.585521 30.980407,27.993294 C 30.957367,28.591921 30.757672,28.444517 30.820251,27.899544 C 30.958919,27.994654 30.96239,27.791958 31.117126,27.954231 z M 31.919861,28.419563 C 30.772321,28.541468 32.141503,27.428294 31.81639,28.219368 C 31.167713,28.295538 31.996414,28.257006 31.919861,28.419563 z M 31.798765,28.111946 C 31.710361,27.809262 31.356069,28.209081 31.798765,28.111946 z M 32.134216,27.68763 C 32.819173,27.776204 31.897173,29.276363 32.261168,28.132454 L 32.229918,27.913704 L 32.134215,27.687629 L 32.134216,27.68763 z M 32.804138,28.26722 C 33.238178,28.29469 32.607517,28.885109 32.804138,28.273126 L 32.804138,28.26722 z M 32.804138,27.927376 C 33.252288,27.864734 32.733253,28.399856 32.804138,27.927376 z M 16.225037,30.516632 C 15.921153,30.698135 16.054298,30.584107 16.248229,30.965608 C 15.759346,31.143318 15.813915,30.93616 16.108825,30.857454 C 15.648912,30.807454 15.815837,30.343192 16.225036,30.516633 L 16.225037,30.516632 z M 16.679626,30.344271 C 17.059076,30.574421 16.440112,30.681202 16.819983,30.936555 C 16.892387,31.341051 16.166255,30.435513 16.536558,30.499542 C 16.529165,30.343536 16.507531,30.327287 16.679626,30.344271 z M 17.330503,30.577181 C 17.373152,29.891722 17.557659,30.678857 17.473083,30.981952 C 17.210337,31.346562 16.555691,30.394562 17.330504,30.57718 L 17.330503,30.577181 z M 17.131287,30.774446 C 17.383561,31.36392 17.33164,30.205837 17.131286,30.774446 L 17.131287,30.774446 z M 17.765076,30.527374 C 18.213221,30.464732 17.69419,30.999859 17.765076,30.527374 z M 17.765076,30.86722 C 18.213322,30.804529 17.69378,31.341891 17.765076,30.86722 z M 18.366636,30.527374 C 18.814791,30.464732 18.295751,30.999859 18.366636,30.527374 z M 18.366636,30.86722 C 18.814892,30.804529 18.295341,31.341891 18.366636,30.86722 z M 19.267029,31.018585 C 18.515118,31.336436 18.999858,30.007668 19.267029,30.658236 C 18.662294,30.462951 19.173443,31.095274 19.267029,31.018585 z M 19.651304,30.602571 C 19.197072,31.022192 20.092433,31.048665 19.651305,30.602571 L 19.651304,30.602571 z M 19.398376,30.77347 C 20.032366,29.646919 20.024652,31.874123 19.398376,30.773469 L 19.398376,30.77347 z M 20.03021,30.855499 C 20.059553,29.984641 20.165225,31.116319 20.327086,30.813508 C 20.280506,30.04053 20.71527,30.998992 20.343736,31.046417 C 20.376631,30.856734 20.016053,31.289906 20.030211,30.8555 L 20.03021,30.855499 z M 20.890562,30.344271 C 21.270019,30.574423 20.651046,30.681199 21.03092,30.936555 C 21.103333,31.341051 20.377186,30.435508 20.747498,30.499542 C 20.740107,30.343541 20.718465,30.327285 20.890562,30.344271 z M 17.503357,31.89427 C 16.654947,31.949787 17.86031,32.277671 17.326848,32.223895 C 16.480982,32.109779 17.470984,31.651975 17.503357,31.89427 z M 18.104918,31.89427 C 17.256512,31.949787 18.461873,32.277672 17.928408,32.223895 C 17.082543,32.109779 18.072545,31.651975 18.104918,31.89427 z M 19.236753,31.617414 C 19.356737,32.246433 18.854098,31.63369 19.236753,31.617414 z M 18.986753,31.617414 C 19.106737,32.246433 18.604098,31.63369 18.986753,31.617414 z M 19.417418,31.617414 C 19.641477,31.776086 19.662485,32.05795 19.804845,31.617414 C 19.995746,31.637132 19.883478,32.677574 19.741636,32.219999 C 19.689282,31.546084 19.460692,32.794062 19.417418,32.15679 C 19.417418,31.976998 19.417418,31.797206 19.417418,31.617414 z M 20.490171,32.319565 C 19.342632,32.441462 20.711819,31.328296 20.386705,32.11937 C 19.738014,32.195543 20.566732,32.157 20.490171,32.319565 z M 20.36908,32.011948 C 20.280673,31.709261 19.926383,32.10908 20.36908,32.011948 z M 20.742615,32.118389 C 20.73245,31.75252 20.527679,31.381649 20.885679,31.713071 C 20.850167,32.161276 21.252314,32.645129 20.742614,32.118391 L 20.742615,32.118389 z M 21.344175,32.118389 C 21.334007,31.752522 21.129248,31.381647 21.487244,31.713071 C 21.451732,32.161274 21.853871,32.64513 21.344176,32.118391 L 21.344175,32.118389 z M 22.057554,31.902571 C 21.603322,32.322193 22.498682,32.348665 22.057555,31.902571 L 22.057554,31.902571 z M 21.804626,32.073467 C 22.438619,30.946925 22.430899,33.174122 21.804626,32.073469 L 21.804626,32.073467 z M 22.583433,32.167217 C 22.99762,32.209401 22.375812,32.777819 22.583433,32.173124 L 22.583433,32.167217 z M 24.049253,31.617414 C 24.169237,32.246433 23.666598,31.63369 24.049253,31.617414 z M 23.799253,31.617414 C 23.919237,32.246433 23.416598,31.63369 23.799253,31.617414 z M 17.503357,33.194271 C 16.654948,33.249793 17.86031,33.577668 17.326847,33.523896 C 16.480981,33.409784 17.470985,32.951974 17.503357,33.194271 z M 18.104918,33.194271 C 17.256512,33.249793 18.461873,33.577669 17.928408,33.523896 C 17.082542,33.409784 18.072546,32.951974 18.104918,33.194271 z M 19.271912,33.291439 C 19.242168,34.162515 19.138224,33.026025 18.975036,33.33343 C 19.020989,34.105434 18.588672,33.145351 18.959365,33.099545 C 18.932221,33.293278 19.279132,32.852464 19.271911,33.291438 L 19.271912,33.291439 z M 19.692322,33.389584 C 19.235516,33.567241 19.934885,33.58173 19.692322,33.389584 z M 19.891541,33.334408 C 20.071601,34.049578 18.880689,33.341813 19.749451,33.26263 C 18.971297,33.227994 19.861021,32.817947 19.89154,33.334407 L 19.891541,33.334408 z M 20.289001,33.154232 C 20.790074,33.065727 20.320274,34.144406 20.389586,33.213801 C 20.275844,33.599677 20.227138,33.785524 20.152282,33.193293 C 20.129243,33.791921 19.929547,33.644519 19.992126,33.099545 C 20.130794,33.194656 20.134264,32.991957 20.289001,33.154231 L 20.289001,33.154232 z M 21.091736,33.619564 C 19.944195,33.741464 21.313381,32.628294 20.988265,33.419369 C 20.339587,33.49554 21.168291,33.457004 21.091736,33.619564 z M 20.97064,33.311947 C 20.88224,33.009261 20.527941,33.40908 20.97064,33.311947 z M 17.503357,34.49427 C 16.654948,34.549792 17.86031,34.877667 17.326847,34.823895 C 16.480981,34.709783 17.470985,34.251973 17.503357,34.49427 z M 18.104918,34.49427 C 17.256512,34.549792 18.461873,34.877668 17.928408,34.823895 C 17.082542,34.709783 18.072546,34.251973 18.104918,34.49427 z M 19.232847,34.416634 C 18.928965,34.598134 19.062113,34.484107 19.256041,34.865607 C 18.767156,35.043316 18.821733,34.836161 19.116637,34.757453 C 18.656724,34.707455 18.823651,34.243191 19.232848,34.416633 L 19.232847,34.416634 z M 19.687437,34.24427 C 20.066893,34.474425 19.447922,34.581198 19.827795,34.836555 C 19.90021,35.241055 19.174061,34.335508 19.544373,34.399544 C 19.536983,34.243543 19.515338,34.227283 19.687437,34.24427 z M 20.338318,34.47718 C 20.380967,33.791722 20.565467,34.578859 20.480894,34.881951 C 20.218155,35.246565 19.5635,34.294559 20.338317,34.47718 L 20.338318,34.47718 z M 20.139097,34.674446 C 20.391375,35.263921 20.339452,34.105837 20.139098,34.674446 L 20.139097,34.674446 z M 20.772886,34.427376 C 21.22104,34.364734 20.702002,34.899856 20.772886,34.427376 z M 20.772886,34.76722 C 21.221142,34.704529 20.70159,35.241895 20.772886,34.76722 z M 21.374451,34.427376 C 21.822596,34.364734 21.303566,34.899856 21.374451,34.427376 z M 21.374451,34.76722 C 21.822697,34.704529 21.303154,35.241895 21.374451,34.76722 z M 22.294861,34.919563 C 21.147321,35.041466 22.516504,33.928294 22.19139,34.719368 C 21.542713,34.795538 22.371414,34.757006 22.294861,34.919563 z M 22.173765,34.611946 C 22.085364,34.309262 21.731067,34.70908 22.173765,34.611946 z M 22.881287,34.591438 C 22.851543,35.462514 22.747599,34.326025 22.584411,34.63343 C 22.630364,35.405433 22.198047,34.445349 22.56874,34.399544 C 22.541594,34.593276 22.888511,34.152466 22.881286,34.591438 L 22.881287,34.591438 z M 23.346128,34.47718 C 23.388777,33.791722 23.573284,34.578857 23.488708,34.881951 C 23.225969,35.246565 22.571312,34.294561 23.346129,34.47718 L 23.346128,34.47718 z M 23.146912,34.674446 C 23.399186,35.263921 23.347265,34.105837 23.146911,34.674446 L 23.146912,34.674446 z M 23.750425,34.718391 C 23.740258,34.352524 23.535497,33.981647 23.893494,34.313071 C 23.857982,34.761273 24.260121,35.245135 23.750426,34.718391 L 23.750425,34.718391 z M 24.382261,34.76722 C 24.816305,34.794689 24.18564,35.38511 24.382261,34.773126 L 24.382261,34.76722 z M 24.382261,34.427376 C 24.830415,34.364734 24.311377,34.899856 24.382261,34.427376 z M 14.625915,36.316242 C 15.204044,36.172662 14.326153,35.358664 14.860778,35.522785 C 15.101584,35.803708 14.981533,36.552094 14.625915,36.316242 z"
         style="font-size:1px;font-style:normal;font-variant:normal;font-weight:bold;font-stretch:normal;text-align:start;line-height:129.99999523%;writing-mode:lr-tb;text-anchor:start;fill:#000000;fill-opacity:1;stroke:none;stroke-width:1px;stroke-linecap:butt;stroke-linejoin:miter;stroke-miterlimit:4;stroke-opacity:1;font-family:Bitstream Vera Sans Mono;-inkscape-font-specification:Bitstream Vera Sans Mono Bold" />
    </g>
    <path
       style="fill:url(#radialGradient2666);fill-opacity:1;fill-rule:evenodd;stroke:#000000;stroke-width:0.45043755;stroke-linecap:butt;stroke-linejoin:round;stroke-miterlimit:4;stroke-dasharray:none;stroke-opacity:1"
       d="M 30.282492,7.763371 L 36.030648,13.511527 L 30.282492,13.511527 L 30.282492,7.763371 z"
       id="path2566"
       sodipodi:nodetypes="cccc" />
    <rect
       y="35.470356"
       x="11.121972"
       height="3.9078729"
       width="24.908676"
       id="rect2568"
       style="opacity:0.5;fill:url(#linearGradient2663);fill-opacity:1;fill-rule:evenodd;stroke:none;stroke-width:0.11;stroke-linecap:round;stroke-linejoin:round;stroke-miterlimit:4;stroke-dasharray:none;stroke-dashoffset:0;stroke-opacity:1" />
    <rect
       transform="matrix(0,-1,1,0,0,0)"
       style="opacity:0.5;fill:url(#linearGradient2660);fill-opacity:1;fill-rule:evenodd;stroke:none;stroke-width:0.11;stroke-linecap:round;stroke-linejoin:round;stroke-miterlimit:4;stroke-dasharray:none;stroke-dashoffset:0;stroke-opacity:1"
       id="rect2570"
       width="25.866701"
       height="3.976999"
       x="-39.378227"
       y="32.05365" />
    <rect
       transform="scale(-1,-1)"
       y="-20.267231"
       x="-36.030647"
       height="6.7557034"
       width="5.7481561"
       id="rect2572"
       style="opacity:0.5;fill:url(#linearGradient2657);fill-opacity:1;fill-rule:evenodd;stroke:none;stroke-width:0.11;stroke-linecap:round;stroke-linejoin:round;stroke-miterlimit:4;stroke-dasharray:none;stroke-dashoffset:0;stroke-opacity:1" />
    <g
       id="g2469">
      <path
         sodipodi:nodetypes="cccccc"
         id="path3290"
         d="M 20.120851,13.293015 L 39.228843,13.293015 L 44.976999,19.041171 L 44.976999,44.907873 L 20.120851,44.907873 L 20.120851,13.293015 z"
         style="fill:url(#radialGradient2440);fill-opacity:1;fill-rule:evenodd;stroke:#000000;stroke-width:0.52762246;stroke-linecap:butt;stroke-linejoin:miter;stroke-miterlimit:4;stroke-dasharray:none;stroke-opacity:1" />
      <use
         height="48"
         width="48"
         transform="translate(8.9167361,5.556441)"
         id="use2459"
         xlink:href="#text2524"
         y="0"
         x="0" />
    </g>
    <path
       sodipodi:nodetypes="cccc"
       id="path3292"
       d="M 39.228843,13.293015 L 44.976999,19.041171 L 39.228843,19.041171 L 39.228843,13.293015 z"
       style="fill:url(#radialGradient2594);fill-opacity:1;fill-rule:evenodd;stroke:#000000;stroke-width:0.45043755;stroke-linecap:butt;stroke-linejoin:round;stroke-miterlimit:4;stroke-dasharray:none;stroke-opacity:1" />
    <rect
       style="opacity:0.5;fill:url(#linearGradient2591);fill-opacity:1;fill-rule:evenodd;stroke:none;stroke-width:0.11;stroke-linecap:round;stroke-linejoin:round;stroke-miterlimit:4;stroke-dasharray:none;stroke-dashoffset:0;stroke-opacity:1"
       id="rect3294"
       width="24.908676"
       height="3.9078729"
       x="20.068323"
       y="41" />
    <rect
       y="41"
       x="-44.907871"
       height="3.976999"
       width="25.866701"
       id="rect3304"
       style="opacity:0.5;fill:url(#linearGradient2588);fill-opacity:1;fill-rule:evenodd;stroke:none;stroke-width:0.11;stroke-linecap:round;stroke-linejoin:round;stroke-miterlimit:4;stroke-dasharray:none;stroke-dashoffset:0;stroke-opacity:1"
       transform="matrix(0,-1,1,0,0,0)" />
    <rect
       style="opacity:0.5;fill:url(#linearGradient2585);fill-opacity:1;fill-rule:evenodd;stroke:none;stroke-width:0.11;stroke-linecap:round;stroke-linejoin:round;stroke-miterlimit:4;stroke-dasharray:none;stroke-dashoffset:0;stroke-opacity:1"
       id="rect3308"
       width="5.7481561"
       height="6.7557034"
       x="-44.976997"
       y="-25.796875"
       transform="scale(-1,-1)" />
  </g>
</svg>
